<svg xmlns="http://www.w3.org/2000/svg" xmlns:xlink="http://www.w3.org/1999/xlink" viewBox="0 0 171.75 56.55"><defs><style>.cls-1{fill:#196ea1;}.cls-2{fill:#73cbf2;}.cls-3{fill:#33459c;}.cls-4{fill:#168fce;}.cls-5{fill:#3eb5cb;}.cls-6{clip-path:url(#clip-path);}.cls-7{fill:#01f9fc;}</style><clipPath id="clip-path"><circle class="cls-1" cx="82.48" cy="27.33" r="25.98"/></clipPath></defs><g id="Layer_2" data-name="Layer 2"><g id="Layer_2-2" data-name="Layer 2"><path class="cls-2" d="M171.65,3.91C169.4-4,129.18.48,81.8,13.93S-2.15,44.7.1,52.62,42.57,56.06,90,42.6,173.9,11.83,171.65,3.91ZM86.82,34.5c-35.2,10-64.5,15.41-65.44,12.09s26.83-14.11,62-24.1,64.5-15.41,65.45-12.1S122,24.5,86.82,34.5Z"/><path class="cls-3" d="M168.92,4.7C167-2,128.32,3,82.51,16S1.11,45.06,3,51.8s40.6,1.67,86.41-11.34S170.84,11.44,168.92,4.7Zm-20.06,5.69c.94,3.32-26.83,14.11-62,24.11S22.32,49.91,21.38,46.59s26.83-14.11,62-24.1S147.91,7.08,148.86,10.39Z"/><path class="cls-4" d="M161.74,6.57c-1.6-5.61-37.18-.42-79.49,11.59S6.94,44.46,8.54,50.07,45.72,50.49,88,38.48,163.33,12.18,161.74,6.57Zm-140.36,40c-.95-3.31,26.83-14.11,62-24.1s64.5-15.41,65.45-12.1S122,24.5,86.82,34.5,22.32,49.91,21.38,46.59Z"/><path class="cls-5" d="M155.56,8.49c-1.37-4.84-33.64.09-72.07,11S15,43.17,16.39,48,50,47.92,88.46,37,156.93,13.33,155.56,8.49Zm-68.74,26c-35.2,10-64.5,15.41-65.44,12.09s26.83-14.11,62-24.1,64.5-15.41,65.45-12.1S122,24.5,86.82,34.5Z"/><circle class="cls-1" cx="82.48" cy="27.33" r="25.98"/><g class="cls-6"><rect class="cls-7" x="39.08" y="18.16" width="74.99" height="8.75" rx="4.38"/><rect class="cls-7" x="39.08" y="32.24" width="74.99" height="8.75" rx="4.38"/></g><path class="cls-2" d="M171.65,3.92c-1.8-6.33-27.84-4.73-62.39,3,.79,1.11,1.67,2.09,2.59,3.21a6.2,6.2,0,0,1,1.38,3.14c17.56-3.83,29.48-5.22,30.07-3.13.94,3.32-26.83,14.11-62,24.11C54.38,41.91,31,46.86,21,47.3a4.66,4.66,0,0,1-2.62,1.64c-6,1.54-12.14,2-18.28,2.43a2.85,2.85,0,0,0,0,1.27c2.25,7.92,42.48,3.43,89.85-10S173.9,11.84,171.65,3.92Z"/><path class="cls-3" d="M168.92,4.71c-1.51-5.29-25.69-3.29-58.19,4.11l1.12,1.33a6.2,6.2,0,0,1,1.38,3.14c17.56-3.82,29.48-5.22,30.07-3.13.94,3.32-26.83,14.11-62,24.11C54.38,41.91,31,46.86,21,47.3a4.66,4.66,0,0,1-2.62,1.64A89.93,89.93,0,0,1,3,51.15a2.12,2.12,0,0,0,.06.67c1.92,6.74,40.61,1.66,86.42-11.35S170.83,11.45,168.92,4.71Z"/><path class="cls-4" d="M161.73,6.59c-1.2-4.21-21.59-2.33-49.58,4a6,6,0,0,1,1.08,2.74c17.56-3.82,29.48-5.22,30.07-3.13.94,3.32-26.83,14.11-62,24.11C54.38,41.91,31,46.86,21,47.3a4.66,4.66,0,0,1-2.62,1.64A69.28,69.28,0,0,1,8.8,50.61C12.49,55.35,47.11,50.12,88,38.5,130.32,26.48,163.32,12.2,161.73,6.59Z"/><path class="cls-5" d="M155.46,8.52c-1-3.52-18.36-1.87-42.54,3.5a5.61,5.61,0,0,1,.31,1.27c17.56-3.83,29.48-5.22,30.07-3.13.94,3.32-26.83,14.11-62,24.11C54.38,41.91,31,46.86,21,47.3a4.66,4.66,0,0,1-2.62,1.64c-.3.08-.59.13-.89.2,6.26,2.77,36.05-2.2,70.91-12.1C126.79,26.12,156.83,13.36,155.46,8.52Z"/></g></g></svg>