<svg xmlns="http://www.w3.org/2000/svg" viewBox="0 0 286.07 363.3"><defs><style>.cls-1{fill:#cbe9fa;}.cls-2{fill:#b7e1dd;opacity:0.43;}.cls-3{fill:#015cab;}.cls-4{fill:#bf4d6c;}.cls-5{fill:#f27892;}.cls-6{fill:#983a3b;}.cls-7{fill:#f16263;}.cls-8{fill:#e1f4fd;}.cls-9{fill:#ac4555;}.cls-10,.cls-12,.cls-13,.cls-15{fill:#1c75bc;}.cls-10,.cls-13,.cls-15{stroke:#1c75bc;}.cls-10,.cls-11,.cls-13,.cls-14,.cls-15,.cls-20,.cls-22,.cls-23,.cls-24,.cls-25,.cls-28{stroke-miterlimit:10;}.cls-10{stroke-width:5.49px;}.cls-11,.cls-14{fill:none;}.cls-11{stroke:#fff;stroke-width:15px;opacity:0.44;}.cls-13{stroke-width:2.03px;}.cls-14{stroke:#d9f1fd;stroke-width:8px;}.cls-15{stroke-width:5.6px;}.cls-16{fill:#7d282c;}.cls-17{fill:#60ccf2;}.cls-18{fill:#bfe7fb;}.cls-19{fill:#0068aa;}.cls-20,.cls-22,.cls-23,.cls-24,.cls-25,.cls-28{fill:#3255a6;stroke:#2e3192;}.cls-20{stroke-width:0.81px;}.cls-21{fill:#2d3392;}.cls-22{stroke-width:0.64px;}.cls-23{stroke-width:0.51px;}.cls-24{stroke-width:0.41px;}.cls-25{stroke-width:0.45px;}.cls-26{fill:#001f59;opacity:0.2;}.cls-27{fill:#003d83;}.cls-28{stroke-width:0.53px;}.cls-29{fill:#fff;}.cls-30{fill:#a0456a;}.cls-31{fill:#c9ebfc;}</style></defs><g id="Layer_2" data-name="Layer 2"><g id="Layer_2-2" data-name="Layer 2"><circle class="cls-1" cx="54.54" cy="153.35" r="5.05"/><circle class="cls-1" cx="244.49" cy="263.36" r="4.11"/><circle class="cls-1" cx="244.49" cy="168.76" r="2.05"/><ellipse class="cls-2" cx="140.67" cy="211.33" rx="119.24" ry="122.05"/><circle class="cls-3" cx="87.04" cy="133.05" r="10.02"/><circle class="cls-3" cx="160.53" cy="132.38" r="7.12"/><circle class="cls-3" cx="209.43" cy="132.03" r="17.16"/><path class="cls-4" d="M261.25,58.25A117.36,117.36,0,0,1,214.62,87.9a117.62,117.62,0,0,1-51.47,5l-7.33-20.76c11.05,2.42,31.3,5.09,53.81-2.76,22.88-8,37.18-23,44.29-31.88Z"/><path class="cls-5" d="M236.36,14.36a117.33,117.33,0,0,1-25.69,48.92,117.71,117.71,0,0,1-42.16,30L151.82,78.87c10.79-3.4,29.68-11.16,45.3-29.17C213,31.39,217.91,11.22,219.67,0Z"/><circle class="cls-6" cx="133.05" cy="39.42" r="1.95"/><rect class="cls-7" x="107.64" y="22.09" width="65.38" height="52.99"/><circle class="cls-6" cx="124.99" cy="68.98" r="2.28"/><rect class="cls-8" x="89.93" y="40.6" width="100" height="28.38" rx="5.13"/><rect class="cls-9" x="152.04" y="22.09" width="21.14" height="52.99"/><path class="cls-10" d="M226.81,129.3a128.31,128.31,0,0,1,45.93,98.38c0,71.26-58.26,129-130.12,129s-130.13-57.76-130.13-129a128.17,128.17,0,0,1,40.79-93.81"/><path class="cls-11" d="M174.79,69l.1,31.37c56.26,14.28,97.85,65,97.85,125.41,0,71.48-58.26,129.42-130.12,129.42S12.49,297.24,12.49,225.76c0-59.31,40.11-109.3,94.81-124.6L107.64,69"/><circle class="cls-12" cx="73.25" cy="136.19" r="10.02"/><circle class="cls-12" cx="124.99" cy="133.05" r="8.45"/><circle class="cls-13" cx="144.88" cy="132.38" r="3.81"/><path class="cls-14" d="M103.13,69l.36,28.45-2.21.82c-54.18,20.62-90.55,70.09-91.84,124-1.65,68.81,54.09,135,129.8,137,75,2,135.25-59.82,137-129.8C277.71,170.89,238,116.1,178.18,97.18L177.85,69"/><circle class="cls-15" cx="182.86" cy="136.67" r="10.5"/><circle class="cls-6" cx="142.62" cy="73.22" r="1.95"/><circle class="cls-16" cx="161.92" cy="72.03" r="1.53"/><circle class="cls-6" cx="146.28" cy="40.6" r="2.28"/><rect class="cls-17" y="195.87" width="286.07" height="60.51" rx="11.77"/><circle class="cls-18" cx="80.93" cy="202.63" r="16.55"/><circle class="cls-18" cx="213.78" cy="245.38" r="16.55"/><circle class="cls-18" cx="233.18" cy="186.43" r="3.93"/><circle class="cls-18" cx="216.86" cy="149.79" r="3.93"/><circle class="cls-18" cx="183.3" cy="144.14" r="3.36"/><circle class="cls-18" cx="169.15" cy="160.12" r="3.36"/><circle class="cls-1" cx="120.42" cy="188.05" r="8.67"/><ellipse class="cls-18" cx="168.38" cy="202.15" rx="21.02" ry="21.4"/><ellipse class="cls-1" cx="216.28" cy="175.17" rx="9.79" ry="9.81"/><circle class="cls-18" cx="114.08" cy="320.87" r="13.53"/><ellipse class="cls-1" cx="87.04" cy="264.28" rx="11.78" ry="11.99"/><circle class="cls-18" cx="229.49" cy="283.36" r="11.66" transform="translate(-66.26 496.66) rotate(-86.8)"/><ellipse class="cls-1" cx="190.33" cy="281.62" rx="8.65" ry="8.67"/><circle class="cls-1" cx="176.26" cy="303.08" r="5.08"/><ellipse class="cls-1" cx="173.93" cy="317.6" rx="8.65" ry="8.67"/><ellipse class="cls-18" cx="80.24" cy="237.28" rx="12.12" ry="12.29" transform="translate(-61.89 31.03) rotate(-15.89)"/><ellipse class="cls-1" cx="94.22" cy="223.26" rx="6.79" ry="6.89" transform="translate(-57.52 34.32) rotate(-15.89)"/><ellipse class="cls-1" cx="129.43" cy="242" rx="6.79" ry="6.89" transform="translate(-61.3 44.68) rotate(-15.89)"/><ellipse class="cls-1" cx="151.22" cy="157.24" rx="6.79" ry="6.89" transform="translate(-37.27 47.4) rotate(-15.89)"/><ellipse class="cls-1" cx="120.42" cy="149.19" rx="6.79" ry="6.89" transform="translate(-36.24 38.67) rotate(-15.89)"/><ellipse class="cls-1" cx="141.46" cy="180" rx="6.79" ry="6.89" transform="translate(-43.87 45.6) rotate(-15.89)"/><ellipse class="cls-1" cx="211.47" cy="237.28" rx="3.39" ry="3.44" transform="translate(-56.88 66.96) rotate(-15.89)"/><ellipse class="cls-1" cx="133.16" cy="298.95" rx="6.79" ry="6.89" transform="matrix(0.96, -0.27, 0.27, 0.96, -76.75, 47.87)"/><circle class="cls-1" cx="105.52" cy="287.77" r="4.11"/><circle class="cls-1" cx="173.93" cy="264.28" r="2.05"/><circle class="cls-1" cx="160.15" cy="283.49" r="2.05"/><circle class="cls-1" cx="163.99" cy="139.5" r="2.05"/><circle class="cls-1" cx="129.43" cy="164.5" r="2.05"/><circle class="cls-1" cx="138.15" cy="144.14" r="2.05"/><ellipse class="cls-1" cx="153.87" cy="213.39" rx="3.39" ry="3.44" transform="translate(-52.54 50.27) rotate(-15.89)"/><ellipse class="cls-1" cx="183.27" cy="245.13" rx="4.37" ry="4.37"/><rect class="cls-19" x="15.32" y="195.87" width="143.45" height="60.51" rx="10.19"/><path class="cls-20" d="M86.67,277.34,54.47,262.8a3.34,3.34,0,0,0-4.54,3.31l1.86,35.63a5.63,5.63,0,0,0,3.28,4.92l35.72,16.13a2.47,2.47,0,0,0,3.34-2.59l-4.42-38.61A5.24,5.24,0,0,0,86.67,277.34Z"/><path class="cls-21" d="M50.84,264.89l17.84,23.64c1.51,2,0,9.32-5,13.54-4.53,3.81-10.22,3.09-11.43,2.9"/><path class="cls-21" d="M93.31,321.14q-9.75-12.39-19.49-24.8c-2.6-3.46-.71-9.65,4.2-13.8,3.34-2.82,7.31-4.05,10.39-3.5"/><path class="cls-22" d="M149.68,274.85l12-26a2.45,2.45,0,0,0-2.47-3.47l-27.74,2.71a4.8,4.8,0,0,0-3.9,2.77l-13.32,28.8a1.82,1.82,0,0,0,1.94,2.56l30.11-4.84A4.54,4.54,0,0,0,149.68,274.85Z"/><path class="cls-21" d="M160.15,246.07,141.38,261c-1.59,1.26-7.25.36-10.42-3.45-2.86-3.45-2.17-8-2-8.93"/><path class="cls-21" d="M115.48,281.62l19.71-16.28c2.75-2.18,7.52-.9,10.64,2.84a10.12,10.12,0,0,1,2.49,8.1"/><path class="cls-23" d="M109.29,163.76H87.75A2.13,2.13,0,0,0,86.16,167l10.6,20.71a3.56,3.56,0,0,0,3.12,2.05h23.89a1.58,1.58,0,0,0,1.13-2.44l-12.8-21.8A3.29,3.29,0,0,0,109.29,163.76Z"/><path class="cls-21" d="M86.33,166l16.12,9.27c1.37.79,2.54,5.54.93,9.4a8.69,8.69,0,0,1-5.47,4.8"/><path class="cls-21" d="M124.7,188.05q-8.65-4.77-17.33-9.52c-2.36-1.37-3-5.56-1.42-9.35,1.07-2.58,2.92-4.38,4.75-4.88"/><path class="cls-24" d="M198.21,182.34,204.84,164a1.41,1.41,0,0,0-1.71-1.94l-17.53,5.32a3.67,3.67,0,0,0-2.37,2.29L175.88,190a1,1,0,0,0,1.33,1.41l19-7A3.51,3.51,0,0,0,198.21,182.34Z"/><path class="cls-21" d="M203.74,162.36,192.4,174.44c-1,1-4.6,1.17-6.76-.9-2-1.86-1.7-4.88-1.63-5.53"/><path class="cls-21" d="M176.74,191.11,188.63,178c1.66-1.76,4.75-1.54,6.87.48a5.93,5.93,0,0,1,1.91,4.92"/><path class="cls-25" d="M158.41,315.65l-9.74-15.9a2.08,2.08,0,0,0-3.26,0L133.76,315a2.63,2.63,0,0,0-.22,3l10.8,17.64a1.54,1.54,0,0,0,2.46,0l11.52-17.29A2.46,2.46,0,0,0,158.41,315.65Z"/><path class="cls-21" d="M146.26,299.49q0,7.62-.07,15.24c0,1.29-3.26,3.86-7,4.07a8.91,8.91,0,0,1-6.29-2.32"/><path class="cls-21" d="M146.08,335.76l-.27-16.22c0-2.23,3.06-4.2,6.78-4.4a8.23,8.23,0,0,1,6,1.75"/><circle class="cls-26" cx="143.03" cy="228.62" r="87.17"/><rect class="cls-27" x="142.62" y="195.87" width="143.45" height="60.51" rx="8.33"/><path class="cls-28" d="M221,315.22l10.58-21.1a2,2,0,0,0-2.07-2.88l-23.68,1.87a4.12,4.12,0,0,0-3.36,2.22l-11.74,23.4a1.51,1.51,0,0,0,1.63,2.12l25.73-3.58A3.87,3.87,0,0,0,221,315.22Z"/><path class="cls-21" d="M230.27,291.8l-16.2,12c-1.37,1-6.18.21-8.83-3-2.4-2.86-1.75-6.55-1.6-7.34"/><path class="cls-21" d="M191.72,320.33q8.52-6.52,17-13.07c2.37-1.75,6.42-.64,9,2.46a8,8,0,0,1,2,6.65"/><rect class="cls-17" x="39.41" y="195.87" width="43.86" height="60.51" rx="12.94"/><rect class="cls-12" x="53.17" y="195.87" width="124.63" height="60.51" rx="14.38"/><path class="cls-29" d="M97.61,154.35A64.61,64.61,0,0,0,67.44,186c-2.88,4.7-8.5,6.09-12.47,4.09-5-2.5-8.38-10.79-4.41-17.12a68,68,0,0,1,33.89-34.32c5.28-3.63,12.85-1,15.62,3.82A9.17,9.17,0,0,1,97.61,154.35Z"/><rect class="cls-5" x="90.33" y="75.09" width="99.6" height="17.8" rx="4.05"/><rect class="cls-30" x="117.9" y="75.09" width="72.03" height="17.8" rx="3.45"/><rect class="cls-4" x="115.52" y="75.09" width="49.62" height="18.14" rx="2.89"/><rect class="cls-31" x="137.65" y="40.6" width="52.68" height="28.38" rx="3.72"/></g></g></svg>