<svg xmlns="http://www.w3.org/2000/svg" xmlns:xlink="http://www.w3.org/1999/xlink" viewBox="0 0 321.22 230.35"><defs><style>.cls-1,.cls-10,.cls-11,.cls-16,.cls-17,.cls-19,.cls-2,.cls-20,.cls-21,.cls-22,.cls-23,.cls-25,.cls-27,.cls-28,.cls-30,.cls-43,.cls-45,.cls-46,.cls-47,.cls-48,.cls-49,.cls-51,.cls-52,.cls-54,.cls-8,.cls-9{stroke:#000;}.cls-1,.cls-10,.cls-11,.cls-16,.cls-17,.cls-19,.cls-2,.cls-20,.cls-21,.cls-22,.cls-23,.cls-25,.cls-29,.cls-30,.cls-31,.cls-32,.cls-33,.cls-34,.cls-35,.cls-44,.cls-45,.cls-51,.cls-52,.cls-53,.cls-8,.cls-9{stroke-linecap:round;stroke-linejoin:round;}.cls-1,.cls-10,.cls-11,.cls-16,.cls-19,.cls-20,.cls-21,.cls-22,.cls-23,.cls-27,.cls-28,.cls-38,.cls-39,.cls-4,.cls-40,.cls-41,.cls-42,.cls-45,.cls-47,.cls-49,.cls-5,.cls-50,.cls-51,.cls-6,.cls-7,.cls-9{stroke-width:0.5px;}.cls-1,.cls-12{fill:url(#linear-gradient);}.cls-14,.cls-2,.cls-6{fill:#c23c91;}.cls-17,.cls-2,.cls-8{stroke-width:0.5px;}.cls-3{fill:#0e1238;}.cls-4{fill:#ba277c;}.cls-36,.cls-37,.cls-38,.cls-39,.cls-4,.cls-40,.cls-41,.cls-42,.cls-5,.cls-50,.cls-6,.cls-7{stroke:#23002d;}.cls-24,.cls-26,.cls-27,.cls-28,.cls-36,.cls-37,.cls-38,.cls-39,.cls-4,.cls-40,.cls-41,.cls-42,.cls-43,.cls-46,.cls-47,.cls-48,.cls-49,.cls-5,.cls-50,.cls-54,.cls-6,.cls-7{stroke-miterlimit:10;}.cls-5{fill:#5f0081;}.cls-7{fill:#b55fbb;}.cls-8{fill:url(#linear-gradient-2);}.cls-9{fill:#3d1958;}.cls-10{fill:#7f54bd;}.cls-11{fill:#91cfe6;}.cls-13{clip-path:url(#clip-path);}.cls-15{clip-path:url(#clip-path-2);}.cls-16{fill:url(#radial-gradient);}.cls-17,.cls-19,.cls-30,.cls-48,.cls-49{fill:none;}.cls-18{fill:#8bd9df;}.cls-20{fill:#62017a;}.cls-21{fill:#92d5ed;}.cls-22{fill:#b267c1;}.cls-23{fill:#c095f5;}.cls-24,.cls-26{stroke:#230030;}.cls-24{fill:url(#linear-gradient-4);}.cls-25{fill:#261d2f;stroke-width:1.04px;}.cls-26{fill:url(#linear-gradient-5);}.cls-27{fill:#3e1c60;}.cls-28,.cls-46{fill:#3d185b;}.cls-28{opacity:0.61;}.cls-29{fill:#e047a8;stroke:#c613bf;stroke-width:4px;}.cls-30{stroke-width:0.41px;}.cls-31,.cls-32,.cls-33,.cls-34{fill:#ffd8c9;}.cls-31{stroke:#2aff2a;}.cls-31,.cls-32,.cls-34,.cls-35{stroke-width:3.66px;}.cls-32,.cls-33,.cls-35{stroke:#ffff36;}.cls-33{stroke-width:4.1px;}.cls-34{stroke:#ffede9;}.cls-35{fill:#ffff36;}.cls-36{fill:#f56eb2;}.cls-36,.cls-37{stroke-width:0.46px;}.cls-37{fill:#ef96b0;}.cls-38,.cls-50,.cls-52{fill:#dafbff;}.cls-38{opacity:0.9;}.cls-39{fill:#9bbdde;}.cls-40{fill:#f499cf;}.cls-41{fill:#ebcfba;}.cls-42{fill:#764aae;}.cls-43{fill:#f6c0a2;stroke-width:0.44px;}.cls-44{fill:#c69;stroke:#f079a8;stroke-width:1.75px;}.cls-45{fill:#fdbbaa;}.cls-46,.cls-48{stroke-width:0.75px;}.cls-47{fill:#5e256b;}.cls-50{opacity:0.75;}.cls-51{fill:#f5c7ab;}.cls-52{stroke-width:0.43px;}.cls-53{fill:#caa4d5;stroke:#c9c;stroke-width:0.87px;}.cls-54{fill:#7579cd;}</style><linearGradient id="linear-gradient" x1="68.72" y1="109.19" x2="67.99" y2="73.27" gradientUnits="userSpaceOnUse"><stop offset="0" stop-color="#34003f"/><stop offset="0.2" stop-color="#380747"/><stop offset="0.87" stop-color="#6e6bbd"/><stop offset="0.96" stop-color="#7579cd"/></linearGradient><linearGradient id="linear-gradient-2" x1="69.25" y1="88.13" x2="67.63" y2="8.56" gradientUnits="userSpaceOnUse"><stop offset="0.05" stop-color="#34003f"/><stop offset="0.6" stop-color="#901a6b"/><stop offset="0.83" stop-color="#b6247d"/></linearGradient><clipPath id="clip-path"><path class="cls-1" d="M93.69,85.77V103.5a5.29,5.29,0,0,1-5.3,5.29H48.45a5.29,5.29,0,0,1-5.29-5.29V85.77a5.29,5.29,0,0,1,5.29-5.3h-.67v-.28c0-2,1.26-3.57,2.8-3.57h6.14c1.55,0,2.8,1.59,2.8,3.57v.28h3.72v-.54a6.44,6.44,0,0,1,6.15-6.69H82.92a6.44,6.44,0,0,1,6.14,6.69v.54h-.67A5.3,5.3,0,0,1,93.69,85.77Z"/></clipPath><clipPath id="clip-path-2"><ellipse class="cls-2" cx="75.37" cy="94.26" rx="12.6" ry="12.81"/></clipPath><radialGradient id="radial-gradient" cx="75.37" cy="94.26" r="11.85" gradientUnits="userSpaceOnUse"><stop offset="0.82" stop-color="#7579cd"/><stop offset="0.91" stop-color="#3b0d4e"/><stop offset="1" stop-color="#34003f"/></radialGradient><linearGradient id="linear-gradient-4" x1="160.03" y1="85.26" x2="158.48" y2="8.91" gradientUnits="userSpaceOnUse"><stop offset="0.05" stop-color="#34003f"/><stop offset="0.65" stop-color="#5e4f9b"/><stop offset="0.96" stop-color="#7579cd"/></linearGradient><linearGradient id="linear-gradient-5" x1="159.34" y1="141.31" x2="158.17" y2="83.7" xlink:href="#linear-gradient-4"/></defs><g id="Layer_2" data-name="Layer 2"><g id="Layer_3" data-name="Layer 3"><rect class="cls-3" width="321.22" height="230.35"/><path class="cls-4" d="M227.76,98.29H288.1a0,0,0,0,1,0,0v14.2a0,0,0,0,1,0,0H227.76a3.58,3.58,0,0,1-3.58-3.58v-7A3.58,3.58,0,0,1,227.76,98.29Z" transform="translate(512.28 210.77) rotate(-180)"/><path class="cls-5" d="M224.75,83.87h60.33a0,0,0,0,1,0,0v14.2a0,0,0,0,1,0,0H224.75a3.58,3.58,0,0,1-3.58-3.58v-7A3.58,3.58,0,0,1,224.75,83.87Z"/><path class="cls-6" d="M224.75,55h60.33a0,0,0,0,1,0,0v14.2a0,0,0,0,1,0,0H224.75a3.58,3.58,0,0,1-3.58-3.58v-7A3.58,3.58,0,0,1,224.75,55Z"/><path class="cls-7" d="M228.94,40.6h60.33a0,0,0,0,1,0,0V54.8a0,0,0,0,1,0,0H228.94a3.58,3.58,0,0,1-3.58-3.58v-7A3.58,3.58,0,0,1,228.94,40.6Z" transform="translate(514.63 95.4) rotate(-180)"/><path class="cls-8" d="M40.51,12.36H91a5.55,5.55,0,0,1,5.55,5.55V82.5A5.55,5.55,0,0,1,91,88H40.51a0,0,0,0,1,0,0V12.36A0,0,0,0,1,40.51,12.36Z"/><rect class="cls-9" x="47.41" y="12.36" width="3.82" height="75.31"/><rect class="cls-10" x="76" y="162.75" width="32.2" height="57.64" rx="2.19" transform="matrix(1, 0, 0, 1, -0.43, 0.21)"/><path class="cls-11" d="M97.43,164.45h6.88a2.44,2.44,0,0,1,2.22,2.6l.11,48.8a2.44,2.44,0,0,1-2.21,2.61l-24.54.06a2.45,2.45,0,0,1-2.22-2.61l-.11-48.79a2.45,2.45,0,0,1,2.21-2.62h7v1.87l10.32.16Z"/><path class="cls-12" d="M93.69,85.77V103.5a5.29,5.29,0,0,1-5.3,5.29H48.45a5.29,5.29,0,0,1-5.29-5.29V85.77a5.29,5.29,0,0,1,5.29-5.3h-.67v-.28c0-2,1.26-3.57,2.8-3.57h6.14c1.55,0,2.8,1.59,2.8,3.57v.28h3.72v-.54a6.44,6.44,0,0,1,6.15-6.69H82.92a6.44,6.44,0,0,1,6.14,6.69v.54h-.67A5.3,5.3,0,0,1,93.69,85.77Z"/><g class="cls-13"><ellipse class="cls-14" cx="75.37" cy="94.26" rx="12.6" ry="12.81"/><g class="cls-15"><circle class="cls-16" cx="75.37" cy="94.26" r="11.85"/></g><ellipse class="cls-17" cx="75.37" cy="94.26" rx="12.6" ry="12.81"/><path class="cls-18" d="M80.06,101.29c-6.21,6.57-17-.39-14.81-8.87a7.91,7.91,0,0,1,4.59-5.53c-6.08,7.67,1,17.67,10.22,14.4Z"/></g><path class="cls-19" d="M93.69,85.77V103.5a5.29,5.29,0,0,1-5.3,5.29H48.45a5.29,5.29,0,0,1-5.29-5.29V85.77a5.29,5.29,0,0,1,5.29-5.3h-.67v-.28c0-2,1.26-3.57,2.8-3.57h6.14c1.55,0,2.8,1.59,2.8,3.57v.28h3.72v-.54a6.44,6.44,0,0,1,6.15-6.69H82.92a6.44,6.44,0,0,1,6.14,6.69v.54h-.67A5.3,5.3,0,0,1,93.69,85.77Z"/><rect class="cls-20" x="53.55" y="111.24" width="36.12" height="48.67" rx="2.91" transform="translate(1.89 -0.98) rotate(0.8)"/><rect class="cls-21" x="55.66" y="113.37" width="31.9" height="6.43" rx="0.99"/><rect class="cls-22" x="56.62" y="127.02" width="7.19" height="4.37" rx="0.39" transform="translate(1.8 -0.82) rotate(0.8)"/><rect class="cls-22" x="56.53" y="133.39" width="7.19" height="4.37" rx="0.39" transform="translate(1.89 -0.82) rotate(0.8)"/><rect class="cls-22" x="56.53" y="139.25" width="7.19" height="4.37" rx="0.39" transform="translate(1.97 -0.82) rotate(0.8)"/><rect class="cls-22" x="56.62" y="145.44" width="7.19" height="4.37" rx="0.39" transform="translate(2.06 -0.82) rotate(0.8)"/><rect class="cls-22" x="56.28" y="151.34" width="7.19" height="4.37" rx="0.39" transform="translate(2.14 -0.82) rotate(0.8)"/><rect class="cls-22" x="67.18" y="127.59" width="7.19" height="4.37" rx="0.39" transform="translate(1.81 -0.97) rotate(0.8)"/><rect class="cls-22" x="67.1" y="133.39" width="7.19" height="4.37" rx="0.39" transform="translate(1.89 -0.97) rotate(0.8)"/><rect class="cls-22" x="66.88" y="139.04" width="7.19" height="4.37" rx="0.39" transform="translate(1.97 -0.97) rotate(0.8)"/><rect class="cls-22" x="66.79" y="145.44" width="7.19" height="4.37" rx="0.39" transform="translate(2.06 -0.96) rotate(0.8)"/><rect class="cls-22" x="66.71" y="151.84" width="7.19" height="4.37" rx="0.39" transform="translate(2.15 -0.96) rotate(0.8)"/><rect class="cls-22" x="78.96" y="121.95" width="7.19" height="4.37" rx="0.39" transform="translate(1.73 -1.14) rotate(0.8)"/><rect class="cls-23" x="56.27" y="121.47" width="19.85" height="3.97" rx="0.62" transform="translate(1.72 -0.91) rotate(0.8)"/><rect class="cls-22" x="78.88" y="127.75" width="7.19" height="4.37" rx="0.39" transform="translate(1.81 -1.13) rotate(0.8)"/><rect class="cls-22" x="78.8" y="133.55" width="7.19" height="4.37" rx="0.39" transform="translate(1.89 -1.13) rotate(0.8)"/><rect class="cls-22" x="78.72" y="139.2" width="7.19" height="4.37" rx="0.39" transform="translate(1.97 -1.13) rotate(0.8)"/><rect class="cls-22" x="78.5" y="145.6" width="7.19" height="4.37" rx="0.39" transform="translate(2.06 -1.13) rotate(0.8)"/><rect class="cls-22" x="78.41" y="152" width="7.19" height="4.37" rx="0.39" transform="translate(2.15 -1.12) rotate(0.8)"/><rect class="cls-24" x="99.01" y="9.93" width="120.5" height="74.3" rx="9.09"/><rect class="cls-25" x="103.33" y="13.24" width="111.68" height="67.78" rx="8.36"/><path class="cls-26" d="M172.27,140.07H98A7.21,7.21,0,0,1,91,131.59l7.17-40.84a7,7,0,0,1,1.58-3.4,7.16,7.16,0,0,1,5.5-2.57H213.13a7.21,7.21,0,0,1,7.09,6l7.16,40.84a7.21,7.21,0,0,1-7.08,8.48H117"/><path class="cls-27" d="M169.05,119.23H143.81a1.91,1.91,0,0,0-1.73,1.82h0l-1.5,10.3a2,2,0,0,0,1.73,2.5h29.88a2,2,0,0,0,1.73-2.5l-1.55-10.69h0a1.81,1.81,0,0,0-1.65-1.42H145.49"/><path class="cls-28" d="M104.64,117,102,117c-2.15,0-3.78-2.28-3.43-4.77L98.9,110l-.21,1.4,3.09-19.08a4.7,4.7,0,0,1,4.62-4H211.82a5.39,5.39,0,0,1,4.55,4.8l3,17.21-.1-.49.7,4.05a3.34,3.34,0,0,1-3.27,3.93l-2.38,0-.3,0L104,117"/><path class="cls-29" d="M195.32,92h-4.08v0h4.08Z"/><path class="cls-29" d="M204,92.05h-4.08v0H204Z"/><path class="cls-29" d="M212.71,92.37h-4.08v0h4.07Z"/><path class="cls-29" d="M164.67,92.16h-5v0h5Z"/><path class="cls-29" d="M142.94,92.33h-5v0h5Z"/><path class="cls-29" d="M131.83,92.29h-5v0h5Z"/><path class="cls-29" d="M121.13,92.31h-5v0h5Z"/><path class="cls-29" d="M110.77,92.12h-5v0h5Z"/><path class="cls-29" d="M153.73,92.16h-5v0h5Z"/><path class="cls-29" d="M179.7,92.1h5.55v0H179.7Z"/><path class="cls-29" d="M173.63,92h-3.48v0h3.49Z"/><path class="cls-29" d="M187.46,105.35H184v0h3.49Z"/><path class="cls-29" d="M178.69,105.37H175.2v0h3.5Z"/><path class="cls-29" d="M169.93,105.39h-3.49v0h3.49Z"/><path class="cls-29" d="M160.74,105.41h-3.49v0h3.5Z"/><path class="cls-29" d="M152.19,105.73H148.7v0h3.49Z"/><path class="cls-29" d="M143.63,105.53h-3.49v0h3.49Z"/><path class="cls-29" d="M134.86,105.7h-3.48v0h3.5Z"/><path class="cls-29" d="M126.1,105.89h-3.49v0h3.49Z"/><path class="cls-29" d="M180,99.12h-3.49v0H180Z"/><path class="cls-29" d="M166.59,98.79H163.1v0h3.5Z"/><path class="cls-29" d="M157.83,98.81h-3.49v0h3.49Z"/><path class="cls-29" d="M148.64,98.84h-3.48v0h3.5Z"/><path class="cls-29" d="M140.09,99.16H136.6v0h3.5Z"/><path class="cls-29" d="M131.53,99H128v0h3.5Z"/><path class="cls-29" d="M122.76,99.12h-3.48v0h3.49Z"/><path class="cls-29" d="M195.9,98.77h-3.49v0h3.5Z"/><path class="cls-29" d="M197.06,105.6h-3.48v0h3.5Z"/><path class="cls-29" d="M204.73,98.75h-3.48v0h3.49Z"/><path class="cls-29" d="M205.47,105.6H202v0h3.49Z"/><path class="cls-29" d="M214.16,105.6h-3.48v0h3.5Z"/><path class="cls-29" d="M214.89,112.05H211.4v0h3.49Z"/><path class="cls-29" d="M205.76,112.08h-3.49v0h3.5Z"/><path class="cls-29" d="M197.06,111.9h-3.48v0h3.5Z"/><path class="cls-29" d="M213.14,98.72h-3.49v0h3.49Z"/><path class="cls-29" d="M117.26,112.3h-4.69s0,.08,0,.12h4.72A.49.49,0,0,1,117.26,112.3Z"/><path class="cls-29" d="M122.64,112a.68.68,0,0,1,0,.14h3.39a.68.68,0,0,0,0-.14Z"/><path class="cls-29" d="M186,99.05H173.87v.13l12.15,0S186,99.09,186,99.05Z"/><path class="cls-29" d="M113.15,99.41h-8.58v.07l8.59,0S113.15,99.44,113.15,99.41Z"/><path class="cls-29" d="M116.68,105.55H103.43v0l13.26.1A.53.53,0,0,1,116.68,105.55Z"/><path class="cls-29" d="M185.91,112q-7.24,0-14.48-.07v.32H186Z"/><path class="cls-29" d="M163.17,111.91c-10.41,0-20.83,0-31.33.07v.26h31.37Z"/><path class="cls-29" d="M107.28,112.18l-5.41,0h5.41Z"/><path class="cls-30" d="M96.56,134.83l123,.74s6.14.06,5-4.89"/><path class="cls-31" d="M133.51,20.75c0,.09,0,.19,0,.28,20,0,53.55-.28,53.55-.28Z"/><path class="cls-31" d="M167,29.64H141.22c0,.09,0,.18,0,.28,8.3,0,17.64-.07,25.72-.12C167,29.74,167,29.69,167,29.64Z"/><path class="cls-32" d="M133.09,29.67v0H118.91c.31.18,6.1.26,14.19.28A2.09,2.09,0,0,1,133.09,29.67Z"/><path class="cls-33" d="M125.27,20.93v0H107.41c.39.18,7.69.26,17.87.28C125.28,21.1,125.27,21,125.27,20.93Z"/><path class="cls-34" d="M174.79,38.63a.41.41,0,0,1,0-.11H142v.21a.56.56,0,0,0,0,.07C153,38.78,165.67,38.7,174.79,38.63Z"/><path class="cls-34" d="M142.45,47.41l-.06.28c10.81,0,23.19-.11,32.17-.18v-.1Z"/><path class="cls-31" d="M176.39,56.29H147.77v.27c10.15,0,20.92-.11,28.62-.17Z"/><path class="cls-35" d="M138.87,56.29h-9.41c0,.09,0,.18,0,.27,2.78,0,6,0,9.41,0A1.41,1.41,0,0,1,138.87,56.29Z"/><path class="cls-34" d="M161.85,65.18c0,.06,0,.13,0,.19,7.44,0,14.27-.1,18.95-.13v-.06Z"/><path class="cls-34" d="M163.28,74.06c8.31,0,15.73-.11,20-.15v0h-20A1.1,1.1,0,0,0,163.28,74.06Z"/><path class="cls-36" d="M228.75,26.47h54.86a0,0,0,0,1,0,0V39.9a0,0,0,0,1,0,0H228.75a3.32,3.32,0,0,1-3.32-3.32V29.79A3.32,3.32,0,0,1,228.75,26.47Z"/><path class="cls-37" d="M229.85,28.33h53.77a0,0,0,0,1,0,0V38a0,0,0,0,1,0,0H229.85a2.78,2.78,0,0,1-2.78-2.78V31.12a2.78,2.78,0,0,1,2.78-2.78Z"/><path class="cls-38" d="M226,57h59.12a0,0,0,0,1,0,0V67.26a0,0,0,0,1,0,0H226a3,3,0,0,1-3-3V60A3,3,0,0,1,226,57Z"/><path class="cls-39" d="M226,85.83h59.12a0,0,0,0,1,0,0V96.1a0,0,0,0,1,0,0H226a3,3,0,0,1-3-3V88.83A3,3,0,0,1,226,85.83Z"/><path class="cls-40" d="M227.28,100.25h59.12a0,0,0,0,1,0,0v10.27a0,0,0,0,1,0,0H227.28a3,3,0,0,1-3-3v-4.27a3,3,0,0,1,3-3Z" transform="translate(510.69 210.77) rotate(-180)"/><path class="cls-41" d="M228.33,42.14h59.12a0,0,0,0,1,0,0V52.41a0,0,0,0,1,0,0H228.33a3,3,0,0,1-3-3V45.15A3,3,0,0,1,228.33,42.14Z" transform="translate(512.78 94.56) rotate(-180)"/><path class="cls-42" d="M221.74,69.44h60.33a0,0,0,0,1,0,0v14.2a0,0,0,0,1,0,0H221.74a3.58,3.58,0,0,1-3.58-3.58V73A3.58,3.58,0,0,1,221.74,69.44Z"/><rect class="cls-43" x="233.18" y="124.12" width="58.18" height="76.48" rx="1.24" transform="translate(16.41 -23.92) rotate(5.39)"/><path class="cls-44" d="M251,126.35l29.75,2.8"/><path class="cls-44" d="M256.42,137.06l33.9,3.2"/><line class="cls-44" x1="239.5" y1="140.57" x2="289.84" y2="145.32"/><line class="cls-44" x1="239.03" y1="145.62" x2="289.37" y2="150.37"/><line class="cls-44" x1="238.55" y1="150.68" x2="288.89" y2="155.43"/><line class="cls-44" x1="238.07" y1="155.74" x2="288.41" y2="160.49"/><line class="cls-44" x1="237.59" y1="160.79" x2="287.94" y2="165.54"/><line class="cls-44" x1="236.64" y1="170.9" x2="286.98" y2="175.65"/><line class="cls-44" x1="236.16" y1="175.96" x2="286.5" y2="180.71"/><line class="cls-44" x1="235.69" y1="181.02" x2="286.03" y2="185.77"/><line class="cls-44" x1="235.21" y1="186.07" x2="285.55" y2="190.82"/><path class="cls-44" d="M234.73,191.13l31.6,3"/><path class="cls-44" d="M234.26,196.18l22.52,2.13"/><path class="cls-44" d="M240.46,130.46l13.77,1.3"/><path class="cls-44" d="M256.42,137.06l33.9,3.2"/><line class="cls-44" x1="239.5" y1="140.57" x2="289.84" y2="145.32"/><line class="cls-44" x1="239.03" y1="145.62" x2="289.37" y2="150.37"/><line class="cls-44" x1="238.55" y1="150.68" x2="288.89" y2="155.43"/><line class="cls-44" x1="238.07" y1="155.74" x2="288.41" y2="160.49"/><path class="cls-45" d="M47.94,114.69a1.43,1.43,0,0,1,1.31,1.55l-.12,1.3-7.07,81.75a1.38,1.38,0,0,1-1.48,1.25l-10.95-.95a1.22,1.22,0,0,1-1.11-1.32l7.2-83.14a1.49,1.49,0,0,1,1.62-1.36Z"/><line class="cls-45" x1="42.25" y1="118.38" x2="49.03" y2="118.79"/><line class="cls-45" x1="42.06" y1="120.53" x2="48.84" y2="120.95"/><line class="cls-45" x1="41.88" y1="122.69" x2="48.65" y2="123.11"/><line class="cls-45" x1="41.69" y1="124.85" x2="48.47" y2="125.27"/><line class="cls-45" x1="37.2" y1="126.64" x2="48.27" y2="127.48"/><line class="cls-45" x1="41.31" y1="129.17" x2="48.09" y2="129.58"/><line class="cls-45" x1="41.13" y1="131.33" x2="47.91" y2="131.74"/><line class="cls-45" x1="40.94" y1="133.49" x2="47.72" y2="133.9"/><line class="cls-45" x1="40.75" y1="135.65" x2="47.53" y2="136.06"/><line class="cls-45" x1="37.16" y1="137.62" x2="47.04" y2="138.36"/><line class="cls-45" x1="40.38" y1="139.96" x2="47.16" y2="140.38"/><line class="cls-45" x1="40.19" y1="142.12" x2="46.97" y2="142.53"/><line class="cls-45" x1="40.01" y1="144.28" x2="46.78" y2="144.69"/><line class="cls-45" x1="39.82" y1="146.44" x2="46.6" y2="146.85"/><line class="cls-45" x1="35.34" y1="148.14" x2="46.41" y2="149.01"/><line class="cls-45" x1="34.41" y1="158.89" x2="45.48" y2="159.76"/><line class="cls-45" x1="33.48" y1="169.64" x2="44.54" y2="170.55"/><line class="cls-45" x1="32.55" y1="180.39" x2="43.62" y2="181.25"/><line class="cls-45" x1="31.62" y1="191.13" x2="42.69" y2="192"/><line class="cls-45" x1="39.45" y1="150.76" x2="46.22" y2="151.17"/><line class="cls-45" x1="39.26" y1="152.91" x2="46.04" y2="153.33"/><line class="cls-45" x1="39.07" y1="155.07" x2="45.85" y2="155.49"/><line class="cls-45" x1="38.88" y1="157.23" x2="45.66" y2="157.65"/><line class="cls-45" x1="38.51" y1="161.55" x2="45.29" y2="161.96"/><line class="cls-45" x1="38.32" y1="163.71" x2="45.1" y2="164.12"/><line class="cls-45" x1="38.14" y1="165.87" x2="44.91" y2="166.28"/><line class="cls-45" x1="37.95" y1="168.02" x2="44.73" y2="168.44"/><line class="cls-45" x1="37.58" y1="172.34" x2="44.35" y2="172.76"/><line class="cls-45" x1="37.39" y1="174.5" x2="44.17" y2="174.91"/><line class="cls-45" x1="37.2" y1="176.66" x2="43.98" y2="177.07"/><line class="cls-45" x1="37.01" y1="178.82" x2="43.79" y2="179.23"/><line class="cls-45" x1="36.64" y1="183.13" x2="43.42" y2="183.55"/><line class="cls-45" x1="36.45" y1="185.29" x2="43.23" y2="185.71"/><line class="cls-45" x1="36.27" y1="187.45" x2="43.04" y2="187.87"/><line class="cls-45" x1="36.08" y1="189.61" x2="42.86" y2="190.02"/><line class="cls-45" x1="35.71" y1="193.93" x2="42.48" y2="194.34"/><line class="cls-45" x1="35.52" y1="196.09" x2="42.3" y2="196.5"/><line class="cls-45" x1="35.33" y1="198.24" x2="42.11" y2="198.66"/><rect class="cls-46" x="115.46" y="143.83" width="112.86" height="67.37" rx="7.87"/><rect class="cls-47" x="119.45" y="150.61" width="12.71" height="8.21" rx="2.96"/><rect class="cls-47" x="119.45" y="166.07" width="12.71" height="8.21" rx="2.96"/><rect class="cls-47" x="119.45" y="181.25" width="12.71" height="8.21" rx="2.96"/><rect class="cls-47" x="119.45" y="196.42" width="12.71" height="8.21" rx="2.96"/><path class="cls-48" d="M183,145.83c12.66.07,24.46.07,37.34.07,2.14,0,4.29,2,4.29,3.07,1.07,18.43,0,36.86,0,55.28,0,2.05-2.15,4.1-3.22,4.1-18.24,1-37.55,0-55.87.14"/><path class="cls-49" d="M137.4,146.64c11.81.08,22.54.08,34.76,0"/><path class="cls-50" d="M223,71.41h59.12a0,0,0,0,1,0,0V81.68a0,0,0,0,1,0,0H223a3,3,0,0,1-3-3V74.41A3,3,0,0,1,223,71.41Z"/><polyline class="cls-19" points="239.73 159.45 240.44 160.72 241.46 160.09 241.94 161.14 242.53 160.72"/><path class="cls-51" d="M74.16,198.93a23.33,23.33,0,0,1-13.33.51c-11.31-2.9-17.89-13.54-14.69-23.76,2.11-6.73,7.93-11.6,14.88-13.32"/><line class="cls-51" x1="63.81" y1="170.13" x2="61.02" y2="162.36"/><polyline class="cls-51" points="74.16 198.93 70.14 187.75 64.88 173.1 63.81 170.13"/><line class="cls-51" x1="50.1" y1="188.93" x2="48.1" y2="190.39"/><line class="cls-51" x1="49.4" y1="187.44" x2="47.4" y2="188.89"/><line class="cls-51" x1="48.7" y1="185.94" x2="46.7" y2="187.39"/><line class="cls-51" x1="48" y1="184.44" x2="46" y2="185.9"/><line class="cls-51" x1="49.19" y1="173.72" x2="47.08" y2="172.54"/><line class="cls-51" x1="50.37" y1="172.41" x2="48.26" y2="171.23"/><line class="cls-51" x1="51.56" y1="171.09" x2="49.44" y2="169.92"/><line class="cls-51" x1="52.74" y1="169.78" x2="50.63" y2="168.6"/><line class="cls-51" x1="50.05" y1="182.24" x2="45.62" y2="183.03"/><line class="cls-51" x1="50.56" y1="175.37" x2="46.15" y2="174.45"/><line class="cls-51" x1="48.38" y1="180.91" x2="45.63" y2="181.22"/><line class="cls-51" x1="48.42" y1="179.35" x2="45.67" y2="179.66"/><line class="cls-51" x1="48.47" y1="177.79" x2="45.72" y2="178.1"/><line class="cls-51" x1="48.51" y1="176.23" x2="45.76" y2="176.54"/><line class="cls-51" x1="57.68" y1="194.05" x2="55.8" y2="197.64"/><line class="cls-51" x1="63.08" y1="197.38" x2="62.83" y2="199.87"/><line class="cls-51" x1="61.47" y1="196.87" x2="61.23" y2="199.36"/><line class="cls-51" x1="59.87" y1="196.37" x2="59.63" y2="198.85"/><line class="cls-51" x1="58.27" y1="195.86" x2="58.02" y2="198.35"/><line class="cls-51" x1="52.19" y1="189.21" x2="49.32" y2="192.08"/><line class="cls-51" x1="56.05" y1="194.46" x2="54.88" y2="196.67"/><line class="cls-51" x1="54.75" y1="193.38" x2="53.59" y2="195.6"/><line class="cls-51" x1="53.46" y1="192.31" x2="52.3" y2="194.52"/><line class="cls-51" x1="52.16" y1="191.24" x2="51" y2="193.45"/><line class="cls-51" x1="72.31" y1="195.05" x2="73.59" y2="199.37"/><line class="cls-51" x1="65.44" y1="195.99" x2="65" y2="200.48"/><line class="cls-51" x1="71.12" y1="197.03" x2="71.99" y2="199.66"/><line class="cls-51" x1="69.56" y1="197.32" x2="70.42" y2="199.94"/><line class="cls-51" x1="67.99" y1="197.6" x2="68.86" y2="200.23"/><line class="cls-51" x1="66.42" y1="197.89" x2="67.29" y2="200.52"/><line class="cls-51" x1="54.78" y1="170.22" x2="51.99" y2="166.68"/><line class="cls-51" x1="61.5" y1="166" x2="58.73" y2="162.45"/><line class="cls-51" x1="55.15" y1="167.94" x2="53.37" y2="165.82"/><line class="cls-51" x1="56.49" y1="167.09" x2="54.71" y2="164.97"/><line class="cls-51" x1="57.84" y1="166.24" x2="56.06" y2="164.13"/><line class="cls-51" x1="59.19" y1="165.4" x2="57.41" y2="163.28"/><path class="cls-52" d="M232.3,120.84h56.12a1.89,1.89,0,0,1,1.89,1.89v72.62a1.59,1.59,0,0,1-1.59,1.59h-56.6a1.67,1.67,0,0,1-1.67-1.67V122.69A1.85,1.85,0,0,1,232.3,120.84Z" transform="translate(-1.62 2.69) rotate(-0.59)"/><path class="cls-53" d="M244.41,123.74l30.74-.32"/><path class="cls-53" d="M251.13,133.78l35-.36"/><line class="cls-53" x1="234.2" y1="139.01" x2="286.21" y2="138.47"/><line class="cls-53" x1="234.25" y1="144.06" x2="286.27" y2="143.52"/><line class="cls-53" x1="234.3" y1="149.11" x2="286.32" y2="148.57"/><line class="cls-53" x1="234.35" y1="154.16" x2="286.37" y2="153.63"/><line class="cls-53" x1="234.4" y1="159.21" x2="286.42" y2="158.68"/><line class="cls-53" x1="234.51" y1="169.32" x2="286.53" y2="168.78"/><line class="cls-53" x1="234.56" y1="174.37" x2="286.58" y2="173.84"/><line class="cls-53" x1="234.61" y1="179.42" x2="286.63" y2="178.89"/><line class="cls-53" x1="234.66" y1="184.48" x2="286.68" y2="183.94"/><path class="cls-53" d="M234.72,189.53l32.65-.34"/><path class="cls-53" d="M234.77,194.58l23.28-.24"/><path class="cls-53" d="M234.09,128.9l14.23-.15"/><path class="cls-53" d="M251.13,133.78l35-.36"/><line class="cls-53" x1="234.2" y1="139.01" x2="286.21" y2="138.47"/><line class="cls-53" x1="234.25" y1="144.06" x2="286.27" y2="143.52"/><line class="cls-53" x1="234.3" y1="149.11" x2="286.32" y2="148.57"/><line class="cls-53" x1="234.35" y1="154.16" x2="286.37" y2="153.63"/><path class="cls-54" d="M202.58,156.48l-21.34,29.17-3.32,3.75-1.74,8.85,8.11-4.08,2.83-5.45L206,159.48S207.86,154.17,202.58,156.48Z"/><path class="cls-54" d="M176.81,195.06s1.95,1.1,2.25,1.74"/><path class="cls-54" d="M189.06,175s1.8-.47,5.21,2.68"/><path class="cls-54" d="M179.91,187.15s5.89,1.83,5.7,4.48"/></g></g></svg>