<svg xmlns="http://www.w3.org/2000/svg" viewBox="0 0 676.13 401.05"><defs><style>.cls-1{fill:#121623;}.cls-12,.cls-17,.cls-2,.cls-21,.cls-3{fill:#111e3e;}.cls-24,.cls-3,.cls-6,.cls-8,.cls-9{opacity:0.64;}.cls-4{fill:#232e5c;}.cls-13,.cls-18,.cls-22,.cls-5,.cls-6{fill:#263a7a;}.cls-14,.cls-19,.cls-23,.cls-7,.cls-8{fill:#19457d;}.cls-10,.cls-15,.cls-20,.cls-9{fill:#156896;}.cls-11{fill:#fff;}.cls-12,.cls-13,.cls-14,.cls-15{opacity:0.68;}.cls-16{fill:#fff200;}.cls-17,.cls-18,.cls-19,.cls-20{opacity:0.69;}.cls-21,.cls-22,.cls-23{opacity:0.71;}.cls-25{fill:#00aeef;}</style></defs><g id="Layer_2" data-name="Layer 2"><g id="Layer_2-2" data-name="Layer 2"><rect class="cls-1" width="676.13" height="401.05"/><circle class="cls-2" cx="343.08" cy="215.65" r="157.18"/><circle class="cls-3" cx="566.71" cy="108.54" r="79.92"/><circle class="cls-4" cx="340.99" cy="225.68" r="142.85"/><circle class="cls-5" cx="343.08" cy="239.85" r="124.87"/><circle class="cls-6" cx="560.16" cy="108.54" r="70.01"/><circle class="cls-7" cx="343.08" cy="246.42" r="113.48"/><circle class="cls-8" cx="556.59" cy="98.83" r="61.29"/><circle class="cls-9" cx="560.16" cy="108.54" r="47.8"/><circle class="cls-10" cx="343.08" cy="253.1" r="99.92"/><path class="cls-11" d="M593.12,86.64a29.46,29.46,0,1,1-27.15-18c1.06,0,2.1.06,3.13.16a38.72,38.72,0,0,0-8.94-1.06,38.23,38.23,0,1,0,33,18.91Z"/><ellipse class="cls-3" cx="467.95" cy="156.34" rx="43.88" ry="42.07"/><circle class="cls-6" cx="469.82" cy="153.18" r="36.86"/><circle class="cls-8" cx="471.41" cy="155.65" r="30.2"/><circle class="cls-9" cx="470.94" cy="150.82" r="22.46"/><circle class="cls-12" cx="411.62" cy="58.9" r="37.07"/><circle class="cls-13" cx="409.48" cy="62.2" r="33.77"/><circle class="cls-14" cx="402.61" cy="58.54" r="26.91"/><circle class="cls-15" cx="398.58" cy="60.13" r="20.01"/><circle class="cls-11" cx="404.81" cy="63.31" r="11.19"/><circle class="cls-11" cx="544.43" cy="208.15" r="4.78"/><circle class="cls-11" cx="610.76" cy="222.88" r="2.8"/><circle class="cls-11" cx="424.19" cy="378.42" r="5.6"/><circle class="cls-11" cx="584.23" cy="354.27" r="4.78"/><circle class="cls-11" cx="150.83" cy="373.66" r="4.91"/><circle class="cls-11" cx="135.94" cy="101.88" r="4.06"/><circle class="cls-11" cx="326.77" cy="38.54" r="5.43"/><circle class="cls-11" cx="316.58" cy="216.61" r="8.46"/><circle class="cls-16" cx="467.95" cy="156.34" r="13.5"/><circle class="cls-16" cx="493.31" cy="339.61" r="3.16"/><circle class="cls-16" cx="586.56" cy="271.25" r="4.81"/><circle class="cls-16" cx="340.96" cy="355.09" r="8.43"/><circle class="cls-16" cx="407.17" cy="255.25" r="4.67"/><circle class="cls-16" cx="88.49" cy="174.37" r="3.11"/><circle class="cls-16" cx="178.86" cy="37.54" r="5.9"/><circle class="cls-16" cx="65.29" cy="366.06" r="2.53"/><ellipse class="cls-17" cx="252.27" cy="58.47" rx="26.71" ry="27.14"/><ellipse class="cls-18" cx="253.99" cy="59.35" rx="23.4" ry="23.78"/><ellipse class="cls-19" cx="252.27" cy="59.35" rx="20.49" ry="20.82"/><ellipse class="cls-20" cx="252.27" cy="63.91" rx="15.98" ry="16.23"/><circle class="cls-16" cx="251.58" cy="57.77" r="9.23"/><ellipse class="cls-3" cx="169.32" cy="146.69" rx="26.71" ry="27.14"/><ellipse class="cls-6" cx="169.32" cy="143.73" rx="23.4" ry="23.78"/><ellipse class="cls-8" cx="169.32" cy="146.69" rx="20.49" ry="20.82"/><ellipse class="cls-9" cx="169.32" cy="150.82" rx="15.98" ry="16.23"/><circle class="cls-16" cx="169.32" cy="144.13" r="9.54"/><circle class="cls-12" cx="230.68" cy="326.52" r="42.07"/><ellipse class="cls-13" cx="228.87" cy="327.89" rx="38.44" ry="36.86"/><ellipse class="cls-14" cx="228.87" cy="327.89" rx="33.65" ry="32.27"/><ellipse class="cls-15" cx="226.26" cy="334.2" rx="26.24" ry="25.16"/><circle class="cls-16" cx="228.87" cy="327.89" r="18.86"/><circle class="cls-21" cx="88.65" cy="74.98" r="41.47"/><ellipse class="cls-22" cx="87.81" cy="78.12" rx="37.06" ry="36.86"/><circle class="cls-23" cx="85.66" cy="74.33" r="30.3"/><circle class="cls-14" cx="536.4" cy="280.89" r="30.3"/><circle class="cls-10" cx="88.01" cy="78.65" r="20.18"/><circle class="cls-15" cx="536.4" cy="283.28" r="20.18"/><ellipse class="cls-17" cx="118.92" cy="280.89" rx="43.88" ry="42.07"/><ellipse class="cls-18" cx="118.16" cy="286.1" rx="38.44" ry="36.86"/><ellipse class="cls-19" cx="118.16" cy="282.46" rx="34.41" ry="33.1"/><ellipse class="cls-20" cx="121.75" cy="286.1" rx="29.08" ry="27.97"/><circle class="cls-11" cx="115.97" cy="280.89" r="14.02"/><circle class="cls-11" cx="86.59" cy="72.91" r="14.44"/><circle class="cls-11" cx="536.4" cy="280.89" r="14.44"/><g class="cls-24"><path class="cls-25" d="M186.86,198.3q-2.78,3.3-5.82,6.4C182,201.59,184.19,199.93,186.86,198.3Z"/><path class="cls-25" d="M404.73,116.16a70.76,70.76,0,0,1-9.18-1.6C398.88,114.75,402.75,112.66,404.73,116.16Z"/><path class="cls-25" d="M574.34,293.25c-3.79,37.34-69.9,31.36-60.33-6.86-6.41,33.21,51.14,38.69,53.42,5.58,4.9-45.66-51.84-48.2-80.81-28.88-55.76,39-149,78.13-193.3,3,5.66,35.56,14.12,82.26-15.66,109.52a71.13,71.13,0,0,1-38.17,15c-34.5,2.52-57.49-22.63-60.44-26-32.9-45,19.15-113.71,70.86-91.25-85.17-17.24-95.84,123.29-4.58,103,43.36-6.09,46.38-53.68,45.09-89.09,2.76-24.35-10.95-44.32-13.95-67.76-5.53-30.55,21.48-63.68,53.47-58,26.47,3.61,43.75,40,15.33,54.28.78-1.15,12.42-18.93,5.18-32.7-8.49-16.15-38.28-17.86-53.58-3.85-11.22,10.29-11.13,25.83-11,29.3C299,310.13,380.26,312.75,455.39,268.16l-.49.37.71-.49-.22.12C491.5,235.61,581.69,222.09,574.34,293.25Z"/><path class="cls-25" d="M455.61,268l-.71.49A4.73,4.73,0,0,1,455.61,268Z"/><path class="cls-25" d="M404.73,116.16a70.76,70.76,0,0,1-9.18-1.6C398.88,114.75,402.75,112.66,404.73,116.16Z"/><path class="cls-25" d="M657,99.12c-8.59-66.39-75.85-98-134.8-71.27-19.56,10.8-44.81,25.87-49.1,49.17-6.61,28.6-44.44,47.37-70.4,37,111.55-9.75,44.22-145.88-35.24-78.14C393.13-9.66,468.37,4.12,474.24,56.66,522.91-25.07,661.75-5.73,657,99.12Z"/><path class="cls-25" d="M528.21,171.32c-12.32,45-80.66,52-102.77,11.05-3.49,38.43-40.91,63.29-77.23,64.33,99.88-9.41,86.86-153.45-11.24-144.26-77.63,19.15-113.06,110.39-193.9,130.4,44,8.31,44.74,69.08,13.47,93C128.12,353.71,68.4,340.16,70,295.91c19.33,70.12,121.85,18.83,91.3-41C121.53,208.77,78,277.69,7.92,143.13c39.86,67.61,102.55,114.33,174.82,58L181,204.7c30.63-28.87,72.62-56.69,93.64-92.95,45.57-101.48-87.9-103.2-36.2-16.29-19.11-8.6-22.59-35.32-17.53-53.7,30.58-57.73,107.71,5.11,58.7,74,34.94-28.9,89.9-38.44,123.07-1.73q-3.56.38-7.17.55c25.11,4.94,31.67,42.17,30.27,64.54,25.49,33.2,91.57,23.19,91.33-23.13-1.24-21.09-17.94-63.32-45.14-51C504.44,80.87,537,143.43,528.21,171.32Z"/><path class="cls-25" d="M186.86,198.3c-1.36,1-2.74,1.91-4.12,2.84C248.28,98,108.28,92.81,148.1,173.57,77.52,74.87,283.13,87.32,186.86,198.3Z"/><path class="cls-25" d="M186.86,198.3q-2.78,3.3-5.82,6.4C182,201.59,184.19,199.93,186.86,198.3Z"/></g></g></g></svg>