<svg xmlns="http://www.w3.org/2000/svg" viewBox="0 0 1073.73 304.41"><defs><style>.cls-1{fill:#0e0e63;}.cls-2{fill:#9e9e9e;}.cls-3{fill:#ff9e00;}</style></defs><title>Asset 1portfolio</title><g id="Layer_2" data-name="Layer 2"><g id="Layer_1-2" data-name="Layer 1"><path class="cls-1" d="M349.06,164.53c11.38,0,22.47,0,33.55.09.64,0,1.7,1.24,1.81,2,.68,4.73,1.14,9.5,1.7,14.25.08.74.31,1.46.72,3.36,10.21-14.88,23.78-22.36,40.82-22.55,17.39-.18,31,6.8,39,23.5,1.13-1.22,2-2.09,2.8-3,8.38-10,18.48-17.22,31.65-19.61,26.62-4.85,48.07,9.41,53.54,36.24A124.1,124.1,0,0,1,557.06,222c.29,25.39.07,50.79.15,76.18,0,2.54-.51,3.47-3.27,3.43q-17.25-.24-34.5,0c-2.7,0-3.33-.82-3.32-3.42.09-24.69.23-49.39-.11-74.08-.08-5.57-1.53-11.26-3.19-16.64-2.15-7-7.43-11.11-14.71-12a19.66,19.66,0,0,0-18.9,8.14,27.24,27.24,0,0,0-5.42,16.82q0,38.55,0,77.09c0,4,0,4-4.12,4-11.2,0-22.4-.09-33.59.06-2.71,0-3.33-.81-3.32-3.4.08-25.3.21-50.59-.11-75.89a44.9,44.9,0,0,0-3.11-15.42c-5.33-13.67-22.86-15.71-32.19-4A27.55,27.55,0,0,0,391,220.3c0,25.79-.07,51.59,0,77.39,0,3-.67,3.93-3.8,3.88-11.19-.2-22.39-.18-33.59,0-2.82,0-3.7-.63-3.7-3.58q.1-54-.08-108c0-7.87-.68-15.75-1-23.63A13.27,13.27,0,0,1,349.06,164.53Z"/><path class="cls-1" d="M151.6,152.32c-8.93-2-17.47-4.61-26.19-5.79-13.51-1.81-27.15-2.19-40.41,1.93-21.91,6.8-34.89,21.69-39,44.21a76.85,76.85,0,0,0,2.83,39.89c6.9,19.5,20.69,31.33,40.87,35.72a76.62,76.62,0,0,0,32.09,0c4.12-.85,4.27-1.15,4.27-5.4,0-10.89-.07-21.79.06-32.69,0-2.89-.93-3.8-3.8-3.75-7.69.13-15.39-.1-23.08,0-2.07,0-2.56-.65-2.54-2.56.07-9,.09-18,0-27,0-2.14.55-3,2.85-3q32.24.09,64.48,0c2,0,2.61.69,2.58,2.62-.09,6.5-.06,13-.06,19.49,0,24.6-.05,49.19.06,73.78,0,2.7-.85,3.92-3.39,4.61-16.89,4.58-33.89,8.28-51.47,9.16-19.16.95-37.92-.78-56-7.48-23.76-8.82-40.38-25.11-49-49-10-27.64-8.91-55.2,3-82,8.61-19.34,23.28-33.2,42.32-42.41,14.68-7.11,30.26-10.57,46.47-11.68A151.78,151.78,0,0,1,155,117.57c.67.21,1.32.48,2,.65,2.47.64,3.31,1.83,2.53,4.58-2.59,9.12-4.88,18.32-7.3,27.49C152,151.23,151.66,152.14,151.6,152.32Z"/><path class="cls-1" d="M310.36,267.6c1.74,9.1,3.37,17.71,5,26.32.35,1.82-.63,2.58-2.15,3-7.63,1.94-15.18,4.4-22.93,5.67a128.51,128.51,0,0,1-38.81.7C232.6,300.61,216.26,293,205,276.82a65.81,65.81,0,0,1-10.92-29.21c-2.31-16.92-.33-33.36,7.24-48.76,10-20.31,26.26-32.49,48.71-36.19,11.84-1.95,23.51-1.38,34.85,2.63,16.33,5.78,26.91,17.34,33.12,33.3,5.71,14.66,6.06,29.8,4.6,45.18-.25,2.66-1.86,2.58-3.75,2.58q-39.3,0-78.58,0c-1.3,0-2.61.06-3.9,0-2.35-.14-3.23.58-2.69,3.15a25.1,25.1,0,0,0,11.61,16.77c9,5.67,19.06,7.18,29.56,7A119.92,119.92,0,0,0,310.36,267.6Zm-51.51-49.68c7.59,0,15.18-.06,22.76,0,2.26,0,3.13-.75,2.75-3s-.56-4.56-1.1-6.78c-1.95-8-6.12-14.48-14.23-17.19-9.28-3.11-18.23-2.17-25.76,4.65-5.67,5.14-8.52,11.93-10,19.36-.45,2.33.61,2.95,2.78,2.93C243.68,217.87,251.27,217.92,258.85,217.92Z"/><path class="cls-2" d="M727.08,301c-7.24,0-13.94-.48-20.54.14-6.08.57-9.35-1.71-12.65-6.72-18.4-28-37.22-55.68-55.91-83.47-.54-.8-1.18-1.53-2-2.56-1,1-1.72,1.74-2.42,2.54-4.6,5.28-9.28,10.48-13.7,15.91a9.17,9.17,0,0,0-2,5.28c-.14,21.59-.09,43.19-.1,64.79,0,1.27-.11,2.54-.17,3.94H593.85V112.37h23.89v91.45a26.57,26.57,0,0,0,2.27-2q29.55-37,59.08-74.08,5.52-6.9,11.24-13.66c.65-.77,1.68-1.72,2.55-1.74,9.37-.12,18.74-.07,28.81-.07-2.46,3-4.51,5.47-6.61,7.93Q685.25,155,655.35,189.83c-1.61,1.88-1.68,3.1-.29,5.13q35,51.27,69.86,102.63C725.57,298.55,726.16,299.55,727.08,301Z"/><path class="cls-2" d="M1073.73,301H1058c-6.21,0-6.25,0-7-6.05-.48-3.63-.81-7.27-1.21-10.91l-.79-.26c-.67.75-1.38,1.47-2,2.25-14.7,17.88-43.24,23.38-62.65,12.07-13.32-7.76-20.13-22.58-18.06-39,2.35-18.59,13.94-29.49,30.27-36.27,11.09-4.59,22.83-6.55,34.74-7.44,4.68-.35,9.39-.46,14.08-.55,1.65,0,2.32-.55,2.3-2.25-.06-5.85-.75-11.58-3.23-16.95C1040,186.16,1032,181.91,1022,181a65.27,65.27,0,0,0-38.63,8.37c-.6.34-1.23.61-2.19,1.08-1.7-5-3.42-9.75-4.86-14.61-.19-.64.91-2,1.74-2.55,8.06-4.89,17-7.54,26.15-9.22a78.82,78.82,0,0,1,30.38-.08c19.87,4.09,32.24,17.05,35.63,37.56a101.73,101.73,0,0,1,1.32,15.49c.28,21.2.25,42.39.55,63.58.08,5.88.9,11.75,1.38,17.62C1073.52,299,1073.61,299.8,1073.73,301Zm-25.54-55.78c0-3.4-.18-6.81,0-10.19.2-2.88-1-3.66-3.63-3.48-4,.28-8,.19-12,.52-8.58.73-17.09,1.92-25.05,5.45-9,4-15.58,10.19-16.92,20.47-1.66,12.73,3.21,24.42,17.21,27.23a36.79,36.79,0,0,0,9.5.4,32.86,32.86,0,0,0,30.8-32.91Z"/><path class="cls-2" d="M820.82,214.86c1.67-18-6.68-32.27-25.15-33.86a65.68,65.68,0,0,0-38.38,8.22c-.68.38-1.4.68-2.41,1.17-1.74-5-3.52-9.72-5-14.56-.19-.62,1-2,1.79-2.52,7.08-4.32,14.88-6.82,22.92-8.57,11.15-2.43,22.38-3,33.62-.75,19.94,4,32.56,17.36,35.74,37.82a110.18,110.18,0,0,1,1.25,15.5c.27,22.2.28,44.39.58,66.58.08,5.57.88,11.13,1.38,17.12H830.43c-4.92,0-5,0-5.66-4.86-.57-4-1-8.09-1.56-13-1.31,1.47-2.08,2.28-2.8,3.13-12.61,15-35.26,21.59-53.94,15.61-17.89-5.73-28.31-21.45-26.84-40.25,1.57-20,13.47-31.79,31-38.88,14.19-5.72,29.19-7.36,44.35-7.84C816.89,214.81,818.78,214.86,820.82,214.86Zm.95,30.73c0-3.69-.09-7.39,0-11.08.07-2.18-.64-3.1-2.91-2.94-6.27.43-12.58.46-18.81,1.2-7.85.93-15.58,2.58-22.55,6.62-8.49,4.94-13.29,12.15-13.6,22.14-.39,12.34,6,21.15,17.54,23.68a35.08,35.08,0,0,0,9.5.42,32.72,32.72,0,0,0,30.8-32.54C821.79,250.59,821.77,248.09,821.77,245.59Z"/><path class="cls-2" d="M885.39,301V165.78h20.42c.33,8.87.66,17.63,1,26.4l.9.45c8.22-20.07,21.8-31.78,44.73-29.63v23.08c-3-.14-6-.51-8.9-.38-13.82.58-23,7.93-28.88,20-3.92,8.12-4.88,16.83-4.9,25.69q-.06,32.82,0,65.65c0,3.92,0,3.93-3.9,3.93Z"/><path class="cls-3" d="M478.17,157c-12.78-37.6-25.56-75.2-38.44-113.07h79.08L478.86,157Z"/><path class="cls-3" d="M485.11,155.31q4.54-13.2,9.08-26.42c9.7-28.21,19.44-56.4,29-84.65.88-2.58,2-3.35,4.71-3.33,14.9.14,29.8.07,45.64.07l-87.92,114.6Z"/><path class="cls-3" d="M473.06,155.58,386.71,45.52c1.16-.08,1.59-.14,2-.14,14.64,0,29.28,0,43.93,0,1.82,0,3,.21,3.7,2.18q18.51,53.85,37.17,107.66Z"/><path class="cls-3" d="M443.73,38.55,477.92,4.4l34.17,34.15Z"/><path class="cls-3" d="M531.22,0,518.74,36.69,482.2,0Z"/><path class="cls-3" d="M424.82,0h51.55L437.44,38.55C433.45,26.35,429.19,13.34,424.82,0Z"/><path class="cls-3" d="M522.61,38.55c4.47-13.16,8.77-25.84,13-38.27l38,38.27Z"/><path class="cls-3" d="M422.35,0q5.86,19.56,12,40.22h-49.2Z"/></g></g></svg>